<svg preserveAspectRatio="none" overflow="visible" style="display: block;" width="22" height="22" viewBox="0 0 22 22" fill="none" xmlns="http://www.w3.org/2000/svg">
<g id="cog">
<path id="Vector" d="M14.6667 11C14.6667 13.025 13.025 14.6667 11 14.6667C8.97496 14.6667 7.33333 13.025 7.33333 11C7.33333 8.97496 8.97496 7.33333 11 7.33333C13.025 7.33333 14.6667 8.97496 14.6667 11Z" stroke-width="1.46667" stroke-linecap="round" stroke-linejoin="round" stroke="#2563EB"/>
<path id="Vector_2" d="M9.16667 1.83333H12.8333L13.75 4.58333L16.5 5.5L19.25 8.25L17.4167 11L19.25 13.75L16.5 16.5L13.75 17.4167L12.8333 20.1667H9.16667L8.25 17.4167L5.5 16.5L2.75 13.75L4.58333 11L2.75 8.25L5.5 5.5L8.25 4.58333L9.16667 1.83333Z" stroke-width="1.46667" stroke-linecap="round" stroke-linejoin="round" stroke="#2563EB"/>
</g>
</svg>
